<svg width="400" height="401" viewBox="0 0 400 401" fill="none" xmlns="http://www.w3.org/2000/svg">
<rect width="400" height="401" rx="200" fill="white"/>
<path fill-rule="evenodd" clip-rule="evenodd" d="M353 200C353 284.776 285.276 354 200.5 354C115.724 354 47 285.276 47 200.5C47 115.724 115.724 47 200.5 47C268.127 47 325.54 90.7333 346 151.461H248.5C248.348 151.911 248.5 190.5 248.5 190.5H292V203.5V216.5H249L248.5 278H223V151.461H180.5C169 151.461 151 150.5 148 167.398C145.5 188.797 180.5 192 180.5 192C180.5 192 211.5 195 211.5 233.5C211.5 272 174.5 279 174.5 279H102C102 279 133 324 200.5 327.5C301.5 324 325 235.5 325 200.5C325 188.5 329.5 176 340 176C351.5 176 353 192.357 353 200ZM166 254.5L86 254C63 186.5 86 146 86 146C124 78.5 180.5 75.5 200.5 74.5C255.7 76.1 289.5 109.833 299.5 126.5C256.333 126.5 169.5 124.98 162 126.5C125 134 124.5 153.5 122.5 170.5C122 210 155 210 166 215C184.5 218 186.5 227.5 186.5 236C185.7 251.2 172.5 254.667 166 254.5Z" fill="#0D406D"/>
</svg>
