<svg width="802" height="307" viewBox="0 0 802 307" fill="none" xmlns="http://www.w3.org/2000/svg">
<path fill-rule="evenodd" clip-rule="evenodd" d="M306 153C306 237.776 238.276 307 153.5 307C68.7243 307 0 238.276 0 153.5C0 68.7243 68.7243 0 153.5 0C221.127 0 278.54 43.7333 299 104.461H201.5C201.348 104.911 201.5 143.5 201.5 143.5H245V156.5V169.5H202L201.5 231H176V104.461H133.5C122 104.461 104 103.5 101 120.398C98.5 141.797 133.5 145 133.5 145C133.5 145 164.5 148 164.5 186.5C164.5 225 127.5 232 127.5 232H55C55 232 86 277 153.5 280.5C254.5 277 278 188.5 278 153.5C278 141.5 282.5 129 293 129C304.5 129 306 145.357 306 153ZM119 207.5L39 207C16 139.5 39 99 39 99C77 31.5 133.5 28.5 153.5 27.5C208.7 29.1 242.5 62.8333 252.5 79.5C209.333 79.5 122.5 77.9797 115 79.5C78 87 77.5 106.5 75.5 123.5C75 163 108 163 119 168C137.5 171 139.5 180.5 139.5 189C138.7 204.2 125.5 207.667 119 207.5Z" fill="#0D406D"/>
<path d="M424.5 139.55C417.2 139.55 410.6 138.3 404.7 135.8C398.9 133.3 394.3 129.7 390.9 125C387.5 120.3 385.75 114.75 385.65 108.35H408.15C408.45 112.65 409.95 116.05 412.65 118.55C415.45 121.05 419.25 122.3 424.05 122.3C428.95 122.3 432.8 121.15 435.6 118.85C438.4 116.45 439.8 113.35 439.8 109.55C439.8 106.45 438.85 103.9 436.95 101.9C435.05 99.9 432.65 98.35 429.75 97.25C426.95 96.05 423.05 94.75 418.05 93.35C411.25 91.35 405.7 89.4 401.4 87.5C397.2 85.5 393.55 82.55 390.45 78.65C387.45 74.65 385.95 69.35 385.95 62.75C385.95 56.55 387.5 51.15 390.6 46.55C393.7 41.95 398.05 38.45 403.65 36.05C409.25 33.55 415.65 32.3 422.85 32.3C433.65 32.3 442.4 34.95 449.1 40.25C455.9 45.45 459.65 52.75 460.35 62.15H437.25C437.05 58.55 435.5 55.6 432.6 53.3C429.8 50.9 426.05 49.7 421.35 49.7C417.25 49.7 413.95 50.75 411.45 52.85C409.05 54.95 407.85 58 407.85 62C407.85 64.8 408.75 67.15 410.55 69.05C412.45 70.85 414.75 72.35 417.45 73.55C420.25 74.65 424.15 75.95 429.15 77.45C435.95 79.45 441.5 81.45 445.8 83.45C450.1 85.45 453.8 88.45 456.9 92.45C460 96.45 461.55 101.7 461.55 108.2C461.55 113.8 460.1 119 457.2 123.8C454.3 128.6 450.05 132.45 444.45 135.35C438.85 138.15 432.2 139.55 424.5 139.55ZM504.206 72.65V112.85C504.206 115.65 504.856 117.7 506.156 119C507.556 120.2 509.856 120.8 513.056 120.8H522.806V138.5H509.606C491.906 138.5 483.056 129.9 483.056 112.7V72.65H473.156V55.4H483.056V34.85H504.206V55.4H522.806V72.65H504.206ZM574.811 139.85C566.811 139.85 559.611 138.1 553.211 134.6C546.811 131 541.761 125.95 538.061 119.45C534.461 112.95 532.661 105.45 532.661 96.95C532.661 88.45 534.511 80.95 538.211 74.45C542.011 67.95 547.161 62.95 553.661 59.45C560.161 55.85 567.411 54.05 575.411 54.05C583.411 54.05 590.661 55.85 597.161 59.45C603.661 62.95 608.761 67.95 612.461 74.45C616.261 80.95 618.161 88.45 618.161 96.95C618.161 105.45 616.211 112.95 612.311 119.45C608.511 125.95 603.311 131 596.711 134.6C590.211 138.1 582.911 139.85 574.811 139.85ZM574.811 121.55C578.611 121.55 582.161 120.65 585.461 118.85C588.861 116.95 591.561 114.15 593.561 110.45C595.561 106.75 596.561 102.25 596.561 96.95C596.561 89.05 594.461 83 590.261 78.8C586.161 74.5 581.111 72.35 575.111 72.35C569.111 72.35 564.061 74.5 559.961 78.8C555.961 83 553.961 89.05 553.961 96.95C553.961 104.85 555.911 110.95 559.811 115.25C563.811 119.45 568.811 121.55 574.811 121.55ZM628.165 96.95C628.165 88.35 629.915 80.85 633.415 74.45C636.915 67.95 641.765 62.95 647.965 59.45C654.165 55.85 661.265 54.05 669.265 54.05C679.565 54.05 688.065 56.65 694.765 61.85C701.565 66.95 706.115 74.15 708.415 83.45H685.765C684.565 79.85 682.515 77.05 679.615 75.05C676.815 72.95 673.315 71.9 669.115 71.9C663.115 71.9 658.365 74.1 654.865 78.5C651.365 82.8 649.615 88.95 649.615 96.95C649.615 104.85 651.365 111 654.865 115.4C658.365 119.7 663.115 121.85 669.115 121.85C677.615 121.85 683.165 118.05 685.765 110.45H708.415C706.115 119.45 701.565 126.6 694.765 131.9C687.965 137.2 679.465 139.85 669.265 139.85C661.265 139.85 654.165 138.1 647.965 134.6C641.765 131 636.915 126 633.415 119.6C629.915 113.1 628.165 105.55 628.165 96.95ZM772.999 138.5L744.799 103.1V138.5H723.799V27.5H744.799V90.65L772.699 55.4H799.999L763.399 97.1L800.299 138.5H772.999ZM453 169.8V186.75H409.35V213.6H442.8V230.25H409.35V274.5H388.35V169.8H453ZM488.891 163.5V274.5H467.891V163.5H488.891ZM546.539 275.85C538.539 275.85 531.339 274.1 524.939 270.6C518.539 267 513.489 261.95 509.789 255.45C506.189 248.95 504.389 241.45 504.389 232.95C504.389 224.45 506.239 216.95 509.939 210.45C513.739 203.95 518.889 198.95 525.389 195.45C531.889 191.85 539.139 190.05 547.139 190.05C555.139 190.05 562.389 191.85 568.889 195.45C575.389 198.95 580.489 203.95 584.189 210.45C587.989 216.95 589.889 224.45 589.889 232.95C589.889 241.45 587.939 248.95 584.039 255.45C580.239 261.95 575.039 267 568.439 270.6C561.939 274.1 554.639 275.85 546.539 275.85ZM546.539 257.55C550.339 257.55 553.889 256.65 557.189 254.85C560.589 252.95 563.289 250.15 565.289 246.45C567.289 242.75 568.289 238.25 568.289 232.95C568.289 225.05 566.189 219 561.989 214.8C557.889 210.5 552.839 208.35 546.839 208.35C540.839 208.35 535.789 210.5 531.689 214.8C527.689 219 525.689 225.05 525.689 232.95C525.689 240.85 527.639 246.95 531.539 251.25C535.539 255.45 540.539 257.55 546.539 257.55ZM720.493 191.4L696.193 274.5H673.543L658.393 216.45L643.243 274.5H620.443L595.993 191.4H617.293L631.993 254.7L647.893 191.4H670.093L685.693 254.55L700.393 191.4H720.493Z" fill="#0D406D"/>
</svg>
