<svg width="898" height="677" viewBox="0 0 898 677" fill="none" xmlns="http://www.w3.org/2000/svg">
<g clip-path="url(#clip0_1607_716)">
<path d="M898 540.09L612.89 652.425L550.51 677L415.581 630.059L300.427 590L290.862 586.675L276.846 551.24L221.114 410.367L193.14 339.646L184.727 318.388L178.643 303.003L165.083 268.726L143.127 213.232L191.085 194.34L236.887 176.291L269.809 163.321L684.329 0L898 540.09Z" fill="#F2F2F2"/>
<path d="M20.6714 360.851C24.1336 360.103 27.7518 360.758 30.73 362.672C33.7081 364.586 35.8023 367.603 36.5519 371.058C37.3014 374.513 36.6449 378.124 34.7268 381.096C32.8087 384.068 29.786 386.158 26.3238 386.906C19.1142 388.463 0 378.955 0 378.955C0 378.955 13.4618 362.409 20.6714 360.851Z" fill="#1E3A5F"/>
<path d="M23.8628 634.514C26.1294 631.797 29.3847 630.09 32.9124 629.768C36.4401 629.447 39.9513 630.537 42.6737 632.799C45.396 635.061 47.1064 638.309 47.4286 641.83C47.7508 645.35 46.6585 648.854 44.3918 651.571C39.6718 657.228 18.7439 661.481 18.7439 661.481C18.7439 661.481 19.1428 640.171 23.8628 634.514Z" fill="#1E3A5F"/>
<path d="M603.131 200.538C581.614 164.256 539.044 162.565 539.044 162.565C539.044 162.565 497.562 157.271 470.952 212.53C446.149 264.035 411.918 313.764 465.441 325.821L475.109 295.793L481.096 328.057C488.717 328.604 496.362 328.734 503.997 328.447C561.316 326.601 615.903 328.988 614.145 308.462C611.809 281.175 623.834 235.449 603.131 200.538Z" fill="#2F2E41"/>
<path d="M514.813 276.474C522.227 292.841 526.902 312.35 529.694 334.02L589.219 330.307C575.534 310.955 570.99 288.743 576.198 263.479L514.813 276.474Z" fill="#FFB8B8"/>
<path opacity="0.2" d="M514.813 276.474C522.227 292.841 526.902 312.35 529.694 334.02L589.219 330.307C575.534 310.955 570.99 288.743 576.198 263.479L514.813 276.474Z" fill="black"/>
<path d="M238.634 588.092C238.634 588.092 207.827 604.56 223.46 618.62C239.093 632.68 259.744 600.009 259.744 600.009L238.634 588.092Z" fill="#FFB8B8"/>
<path d="M615.261 540.073L614.78 562.572L613.752 611.183L612.89 652.425L550.51 677L415.581 630.059L424.458 580.868L431.627 541.148L434.827 523.365L596.661 501.089L615.261 540.073Z" fill="#2F2E41"/>
<path d="M615.261 540.073L614.777 562.571C557.522 561.105 468.774 547.312 431.627 541.149L434.826 523.366L596.659 501.09L615.261 540.073Z" fill="#3F3D56"/>
<path d="M543.645 292.253C569.329 292.253 590.149 271.475 590.149 245.844C590.149 220.214 569.329 199.436 543.645 199.436C517.962 199.436 497.141 220.214 497.141 245.844C497.141 271.475 517.962 292.253 543.645 292.253Z" fill="#FFB8B8"/>
<path d="M632.933 565.133C632.933 565.133 638.513 615.254 605.03 611.541L599.45 561.42L569.687 531.719L485.98 529.863L424.595 587.409C424.595 587.409 422.735 528.006 430.176 522.437C437.617 516.868 454.358 503.874 454.358 503.874V494.592L404.134 392.494C404.134 392.494 433.896 331.236 458.078 329.379L489.701 327.523C489.701 327.523 500.862 321.954 500.862 320.098C500.862 318.241 499.002 303.391 508.302 307.103C508.302 307.103 509.139 288.057 518.942 293.868C518.942 293.868 549.802 318 581.127 294.926C581.127 294.926 595.729 292.253 593.869 299.678C592.009 307.103 593.869 312.672 597.59 312.672C601.31 312.672 618.051 318.241 618.051 321.954C618.051 322.752 619.26 330.437 621.158 342.002V342.021C628.059 384.178 644.093 477.885 644.093 477.885C644.093 477.885 660.835 502.018 632.933 565.133Z" fill="#1E3A5F"/>
<path d="M417.155 383.213L404.134 392.494L285.084 544.713L221.839 594.834C221.839 594.834 257.182 589.265 249.741 618.966L467.379 494.592L417.155 383.213Z" fill="#1E3A5F"/>
<path d="M621.158 342.002V342.021C618.684 356.537 538.065 353.511 526.904 353.511C515.743 353.511 506.442 351.655 495.281 344.23C484.12 336.804 489.701 327.523 489.701 327.523C489.701 327.523 499.204 320.3 499.204 318.443C499.204 316.587 497.344 301.736 506.645 305.449C506.645 305.449 507.482 286.403 517.285 292.213C517.285 292.213 549.802 318 581.127 294.926C581.127 294.926 595.729 292.253 593.869 299.678C592.009 307.103 593.869 312.672 597.59 312.672C601.31 312.672 618.051 318.241 618.051 321.954C618.051 322.752 619.26 330.437 621.158 342.002Z" fill="#3F3D56"/>
<path d="M611.541 272.761C611.541 272.761 596.659 241.204 581.778 256.054C566.897 270.905 598.52 293.181 598.52 293.181L611.541 272.761Z" fill="#FFB8B8"/>
<path d="M611.541 265.336C611.541 265.336 588.562 294.316 581.45 296.533C581.45 296.533 602.24 378.572 628.282 400.848L643.163 476.957C643.163 476.957 706.409 450.969 691.527 408.273C691.379 407.846 691.23 407.422 691.083 407C678.658 371.444 661.51 337.711 640.098 306.704L611.541 265.336Z" fill="#1E3A5F"/>
<path opacity="0.2" d="M599.261 351.289L645.023 476.957L628.282 400.847L599.261 351.289Z" fill="black"/>
<path d="M593.618 197.04L551.561 175.056L493.483 184.05L481.467 237.012L511.378 235.864L519.735 216.406V235.543L533.536 235.013L541.547 204.036L546.554 237.012L595.62 236.013L593.618 197.04Z" fill="#2F2E41"/>
<path d="M232.822 610.816C203.912 594.733 185.914 572.774 179.328 545.552C174.439 525.34 175.844 502.596 183.504 477.951C189.183 459.78 197.697 442.617 208.734 427.094C267.283 344.39 272.567 290.5 266.69 259.854C260.247 226.253 239.312 212.298 239.101 212.161L240.005 210.774C240.221 210.914 261.707 225.194 268.306 259.477C272.11 279.241 270.32 301.778 262.987 326.461C253.86 357.179 236.062 391.358 210.088 428.049C199.152 443.43 190.715 460.436 185.087 478.44C172.523 518.861 170.746 574.388 233.629 609.372L232.822 610.816Z" fill="#2F2E41"/>
<path d="M180.02 457.676C157.228 444.997 157.863 424.903 162.409 410.279C164.424 403.829 167.446 397.737 171.364 392.226C191.875 363.253 193.729 344.431 191.672 333.743C189.438 322.138 182.272 317.373 182.2 317.326L183.103 315.939C183.422 316.146 190.934 321.141 193.3 333.431C196.38 349.435 189.456 369.538 172.718 393.181C168.901 398.549 165.956 404.485 163.992 410.769C159.628 424.808 159.006 444.092 180.827 456.231L180.02 457.676Z" fill="#2F2E41"/>
<path d="M282.564 274.048L281.757 272.603C303.578 260.464 302.956 241.18 298.592 227.141C296.628 220.857 293.684 214.921 289.866 209.553C273.129 185.91 266.204 165.807 269.284 149.803C271.65 137.513 279.163 132.518 279.481 132.311L280.386 133.697C280.313 133.745 273.111 138.572 270.9 150.181C268.866 160.862 270.739 179.668 291.22 208.598C295.138 214.109 298.16 220.201 300.176 226.651C304.721 241.275 305.356 261.369 282.564 274.048Z" fill="#2F2E41"/>
<path d="M331.227 191.744C329.443 194.475 327.138 196.828 324.443 198.669C321.747 200.511 318.715 201.804 315.519 202.475C312.323 203.147 309.026 203.184 305.815 202.583C302.605 201.983 299.545 200.757 296.809 198.976C294.074 197.195 291.717 194.894 289.873 192.203C288.029 189.513 286.734 186.487 286.062 183.297C285.39 180.107 285.355 176.816 285.958 173.613C286.56 170.41 287.79 167.356 289.575 164.627C297.079 153.149 334.857 140.777 334.857 140.777C334.857 140.777 338.73 180.266 331.227 191.744Z" fill="#1E3A5F"/>
<path d="M322.109 114.819C320.325 117.55 318.02 119.903 315.325 121.744C312.63 123.585 309.598 124.879 306.401 125.55C303.205 126.222 299.908 126.258 296.698 125.658C293.487 125.058 290.427 123.832 287.692 122.051C284.956 120.27 282.599 117.968 280.755 115.278C278.911 112.588 277.616 109.561 276.944 106.372C276.272 103.182 276.237 99.8912 276.84 96.6878C277.443 93.4843 278.672 90.4307 280.458 87.7015C287.962 76.2235 325.739 63.8514 325.739 63.8514C325.739 63.8514 329.613 103.341 322.109 114.819Z" fill="#1E3A5F"/>
<path d="M282.031 396.644C276.197 396.653 270.534 394.681 265.973 391.052C261.411 387.423 258.223 382.353 256.932 376.676C255.642 370.998 256.326 365.052 258.871 359.813C261.417 354.575 265.673 350.358 270.94 347.854C283.456 341.903 320.995 350.615 322.588 350.989L323.594 351.225L323.144 352.154C322.432 353.623 305.558 388.202 293.041 394.153C289.603 395.792 285.841 396.644 282.031 396.644ZM284.122 347.436C279.03 347.436 274.569 347.962 271.653 349.348C265.898 352.084 261.467 356.989 259.336 362.985C257.205 368.981 257.548 375.576 260.29 381.32C263.031 387.064 267.947 391.485 273.955 393.612C279.963 395.738 286.572 395.396 292.328 392.66C303.217 387.483 318.361 358.021 321.189 352.369C316.664 351.366 298.043 347.436 284.122 347.436Z" fill="#2F2E41"/>
<path d="M231.359 168.977C233.772 171.172 235.728 173.821 237.115 176.771C238.502 179.721 239.294 182.915 239.444 186.17C239.595 189.425 239.101 192.678 237.992 195.743C236.883 198.808 235.179 201.625 232.979 204.033C230.779 206.441 228.125 208.393 225.169 209.777C222.213 211.161 219.013 211.951 215.751 212.101C212.489 212.252 209.229 211.759 206.158 210.652C203.087 209.545 200.264 207.845 197.851 205.65C187.703 196.416 181.531 157.218 181.531 157.218C181.531 157.218 221.211 159.743 231.359 168.977Z" fill="#1E3A5F"/>
<path d="M173.339 273.198C178.212 277.632 181.12 283.817 181.424 290.391C181.728 296.965 179.403 303.391 174.959 308.254C170.516 313.117 164.319 316.02 157.731 316.323C151.143 316.626 144.704 314.305 139.831 309.871C129.683 300.637 123.511 261.439 123.511 261.439C123.511 261.439 163.191 263.964 173.339 273.198Z" fill="#1E3A5F"/>
<path d="M238.373 287.815C230.074 287.815 214.203 279.972 213.475 279.61L212.55 279.149L213.202 278.348C213.759 277.663 226.932 261.558 234.341 259.957C238.018 259.162 241.861 259.858 245.024 261.891C248.187 263.924 250.411 267.128 251.207 270.797C252.003 274.467 251.306 278.302 249.269 281.458C247.231 284.615 244.021 286.834 240.344 287.629C239.695 287.76 239.035 287.822 238.373 287.815ZM215.159 278.585C219.068 280.447 234.038 287.3 239.994 286.012C243.239 285.308 246.072 283.347 247.869 280.56C249.667 277.773 250.282 274.388 249.579 271.149C248.876 267.91 246.913 265.081 244.122 263.286C241.33 261.49 237.938 260.875 234.692 261.574C228.734 262.861 217.946 275.277 215.159 278.585Z" fill="#2F2E41"/>
<path d="M149.359 624.355C151.106 621.281 154.003 619.025 157.416 618.082C160.828 617.139 164.476 617.587 167.557 619.328C170.639 621.068 172.902 623.958 173.849 627.362C174.796 630.767 174.35 634.408 172.608 637.484C168.975 643.891 149.143 651.8 149.143 651.8C149.143 651.8 145.726 630.762 149.359 624.355Z" fill="#1E3A5F"/>
<path d="M105.976 482.426C100.255 482.335 94.5478 481.844 88.8956 480.957L87.8745 480.792L88.259 479.834C88.5872 479.014 96.376 459.732 102.975 456.009C104.597 455.094 106.383 454.507 108.232 454.281C110.081 454.055 111.957 454.195 113.752 454.692C115.547 455.189 117.226 456.035 118.693 457.18C120.161 458.324 121.388 459.747 122.305 461.365C123.222 462.983 123.81 464.766 124.037 466.611C124.263 468.456 124.123 470.328 123.625 472.119C123.127 473.91 122.28 475.586 121.132 477.051C119.985 478.515 118.56 479.74 116.938 480.655C114.568 481.993 110.392 482.426 105.976 482.426ZM90.1988 479.48C94.4847 480.099 110.817 482.208 116.122 479.216C119.015 477.584 121.139 474.872 122.028 471.677C122.917 468.482 122.498 465.066 120.863 462.179C119.227 459.293 116.51 457.173 113.309 456.286C110.107 455.398 106.684 455.817 103.791 457.449C98.4865 460.441 91.8763 475.495 90.1988 479.48Z" fill="#2F2E41"/>
</g>
<defs>
<clipPath id="clip0_1607_716">
<rect width="898" height="677" fill="white"/>
</clipPath>
</defs>
</svg>
